# xmcd
#
# Track frame offsets: 
#        182
#        20170
#        42560
#        59657
#        73985
#        93777
#        114767
#        137185
#        157287
#        174692
#        192530
#        212802
#        234512
#
# Disc length: 3401 seconds
#
# Revision: 2
# Processed by: cddbd v1.5.2PL0 Copyright (c) Steve Scherf et al.
# Submitted via: ExactAudioCopy v0.99pb4
#
DISCID=cb0d470d
DTITLE=Joel Johnson Band - City Music
DYEAR=1900
DGENRE=Blues
TTITLE0=Harp Attack
TTITLE1=Make Your Blues Go Away
TTITLE2=Got Love (If You Want It)
TTITLE3=Wildflower
TTITLE4=The Power of a Woman
TTITLE5=Politicians
TTITLE6=Tough Times
TTITLE7=My Baby's Late
TTITLE8=Honest I Do
TTITLE9=Old Blues Man
TTITLE10=Minneapolis Girls
TTITLE11=Slow Burns
TTITLE12=Paint My Mailbox Blue
EXTD=
EXTT0=
EXTT1=
EXTT2=
EXTT3=
EXTT4=
EXTT5=
EXTT6=
EXTT7=
EXTT8=
EXTT9=
EXTT10=
EXTT11=
EXTT12=
PLAYORDER=
